  <svg
    width="105"
    height="102"
    viewBox="0 30 105 30"
    fill="none"
    xmlns="http://www.w3.org/2000/svg"
  >
    <path
      fillRule="evenodd"
      clipRule="evenodd"
      d="M77.0124 67.6383L78.5866 58.4582H60.4512L71.7858 49.3427C73.2551 48.1791 74.6195 47.0585 75.8789 45.981C77.1383 44.8604 78.2298 43.6752 79.1533 42.4253C80.1189 41.1754 80.8745 39.8394 81.4202 38.4171C81.966 36.9517 82.2389 35.2708 82.2389 33.3745C82.2389 31.3488 81.84 29.5602 81.0424 28.0086C80.2868 26.414 79.2163 25.0779 77.831 24.0004C76.4876 22.8798 74.8924 22.0394 73.0452 21.4791C71.1981 20.9188 69.2041 20.6387 67.0631 20.6387C62.8651 20.6387 59.1918 21.8239 56.0433 24.1944C52.9368 26.5648 50.7538 29.9265 49.4944 34.2796L58.94 36.2837C59.5277 34.2149 60.4302 32.6202 61.6477 31.4997C62.9071 30.336 64.4183 29.7542 66.1815 29.7542C67.9447 29.7542 69.267 30.2067 70.1486 31.1118C71.0722 31.9738 71.534 33.159 71.534 34.6675C71.534 35.9604 71.0722 37.2319 70.1486 38.4817C69.267 39.7316 67.9447 41.1108 66.1815 42.6193L46.0941 58.7168L44.5828 67.6383H77.0124ZM29.2724 84.6604H43.1345L32.5167 61.5719C36.4492 60.5626 39.5706 58.6953 41.881 55.9701C44.1913 53.1945 45.3465 49.6366 45.3465 45.2964C45.3465 40.8049 43.7243 37.3227 40.48 34.8499C37.2849 32.3265 32.8117 31.0649 27.0604 31.0649H9.21676L0 84.6604H11.9449L15.4842 63.0859H20.4981L29.2724 84.6604ZM30.231 52.4122C28.4122 53.5225 25.8561 54.0776 22.5626 54.0776H17.1063L19.3183 41.3601H24.5535C27.1096 41.3601 29.1496 41.7638 30.6734 42.5712C32.1972 43.3787 32.9591 44.8927 32.9591 47.1132C32.9591 49.5356 32.0498 51.302 30.231 52.4122Z"
      fill="url(#paint0_linear)"
    />
    <path
      opacity="0.8"
      d="M95.7069 30.006C95.7069 25.1201 94.0172 20.3977 90.9525 16.7105C87.7967 12.9157 83.4261 10.5452 78.644 10.0338C77.2036 9.8806 75.9195 10.9758 75.7731 12.483C75.6267 13.9881 76.6733 15.3338 78.1137 15.487C85.1593 16.2385 90.4717 22.4804 90.4717 30.0081C90.4717 31.5214 91.645 32.7491 93.0893 32.7491C94.5336 32.745 95.7069 31.5194 95.7069 30.006ZM102.379 25.8695C101.051 25.8695 99.9133 24.8178 99.7768 23.4079C98.8627 14.0274 91.2295 6.14993 82.3973 5.47294C80.9549 5.36321 79.8707 4.04857 79.9755 2.53932C80.0804 1.03007 81.3348 -0.10238 82.7791 0.00734567C88.3448 0.433827 93.6829 3.02998 97.8042 7.32171C101.874 11.5555 104.424 17.0708 104.986 22.851C105.133 24.3561 104.086 25.7018 102.646 25.855C102.557 25.8633 102.468 25.8695 102.379 25.8695Z"
    />
    <defs>
      <linearGradient
        id="paint0_linear"
        x1="-1.84604"
        y1="85.9687"
        x2="66.867"
        y2="8.12532"
        gradientUnits="userSpaceOnUse"
      >
        <stop stopColor="#235CE2" />
        <stop offset="1" stopColor="#4DB1F8" />
      </linearGradient>
    </defs>
  </svg>